<svg xmlns="http://www.w3.org/2000/svg" viewBox="0 0 38.756 36.969"><path fill="#fcb813" d="M0 6.428v16.02a6.436 6.436 0 0 0 6.429 6.428h2.97a10.374 10.374 0 0 1-2.612 3.938 2.428 2.428 0 0 0 1.705 4.155 2.484 2.484 0 0 0 .39-.031 18.986 18.986 0 0 0 6.156-1.984 14.302 14.302 0 0 0 5.955-6.078h11.335a6.435 6.435 0 0 0 6.428-6.428V6.428A6.435 6.435 0 0 0 32.328 0h-25.9A6.436 6.436 0 0 0 0 6.428zm2.428 0a4.012 4.012 0 0 1 4-4h25.9a4.012 4.012 0 0 1 4 4v16.02a4.012 4.012 0 0 1-4 4H19.434c-2.607 6.593-8.566 7.708-10.941 8.093a13.616 13.616 0 0 0 3.981-7.72 1.367 1.367 0 0 0-.014-.373H6.429a4.012 4.012 0 0 1-4-4V6.428z"/><path fill="#fca029" d="M17.052 23.322a1.418 1.418 0 0 1-1.087-.507l-4.337-5.181a1.418 1.418 0 0 1 2.174-1.82l3.13 3.741 8.16-12.032a1.417 1.417 0 0 1 2.345 1.592L18.224 22.7a1.418 1.418 0 0 1-1.1.619c-.025.002-.049.002-.073.002z"/></svg>