<svg xmlns="http://www.w3.org/2000/svg" viewBox="0 0 34.214 27.54"><path fill="none" stroke="#0053a0" stroke-miterlimit="10" stroke-width="2.427" d="M28.854 23.143a5.455 5.455 0 0 1-4.689 3.183H10.048a5.455 5.455 0 0 1-4.688-3.183l-3.922-9.879a2.167 2.167 0 0 1 2.16-3.183h27.017a2.167 2.167 0 0 1 2.16 3.183z"/><path fill="none" stroke="#0053a0" stroke-linecap="round" stroke-miterlimit="10" stroke-width="2.427" d="M27.644 10.081L24.92 3.22a3.438 3.438 0 0 0-2.955-2.007h-9.717A3.438 3.438 0 0 0 9.294 3.22L6.57 10.08M2.454 15.823h29.302M4.604 21.334h25.003M8.866 10.279l3.163 16.047M25.344 10.279l-3.163 16.047M17.105 10.498v15.123"/></svg>