<svg width="33" height="34" viewBox="0 0 33 34" fill="none" xmlns="http://www.w3.org/2000/svg">
<g clip-path="url(#clip0_403:74)">
<path d="M3.68941 0.735291C1.82182 0.735291 0.317383 2.23973 0.317383 4.10731V30.046C0.317383 31.9135 1.82182 33.418 3.68941 33.418H19.2526C21.1202 33.418 22.6246 31.9135 22.6246 30.046V20.5784C22.6246 20.1374 22.2874 19.8002 21.8465 19.8002C21.4055 19.8002 21.0683 20.1374 21.0683 20.5784V30.046C21.0683 31.0576 20.2642 31.8617 19.2526 31.8617H3.68941C2.6778 31.8617 1.8737 31.0576 1.8737 30.046V4.10731C1.8737 3.09571 2.6778 2.29161 3.68941 2.29161H14.0649C14.5058 2.29161 14.843 1.95441 14.843 1.51345C14.843 1.07249 14.5058 0.735291 14.0649 0.735291H3.68941ZM24.4403 0.735291C23.9994 0.735291 23.6622 1.07249 23.6622 1.51345V3.12144C22.5209 3.25114 21.4835 3.71813 20.6275 4.39254L19.4861 3.25114C19.1749 2.93987 18.6817 2.93987 18.3964 3.25114C18.0852 3.5624 18.0852 4.05554 18.3964 4.34086L19.5378 5.48227C18.8634 6.33824 18.4224 7.37558 18.2667 8.51688H16.6587C16.2178 8.51688 15.8806 8.85409 15.8806 9.29504C15.8806 9.736 16.2178 10.0732 16.6587 10.0732H18.2667C18.3964 11.2145 18.8634 12.2518 19.5378 13.1078L18.3964 14.2492C18.0852 14.5605 18.0852 15.0536 18.3964 15.3389C18.552 15.4946 18.76 15.572 18.9415 15.572C19.1231 15.572 19.3305 15.4946 19.4861 15.3389L20.6275 14.1975C21.4835 14.872 22.5209 15.313 23.6622 15.4686V17.0766C23.6622 17.5176 23.9994 17.8548 24.4403 17.8548C24.8813 17.8548 25.2185 17.5176 25.2185 17.0766V15.4686C26.3598 15.339 27.3971 14.872 28.2531 14.1975L29.3945 15.3389C29.5501 15.4946 29.7575 15.572 29.9391 15.572C30.1207 15.572 30.3286 15.4946 30.4842 15.3389C30.7955 15.0277 30.7955 14.5345 30.4842 14.2492L29.3428 13.1078C30.0172 12.2518 30.4583 11.2145 30.6139 10.0732H32.2219C32.6629 10.0732 33.0001 9.736 33.0001 9.29504C33.0001 8.85409 32.6629 8.51688 32.2219 8.51688H30.6139C30.4842 7.37558 30.0172 6.33824 29.3428 5.48227L30.4842 4.34086C30.7955 4.0296 30.7955 3.53646 30.4842 3.25114C30.173 2.93987 29.6798 2.93987 29.3945 3.25114L28.2531 4.39254C27.3971 3.71813 26.3598 3.27708 25.2185 3.12144V1.51345C25.2185 1.07249 24.8813 0.735291 24.4403 0.735291ZM24.4403 4.62609C27.0082 4.62609 29.1093 6.72712 29.1093 9.29504C29.1093 11.863 27.0082 13.964 24.4403 13.964C21.8724 13.964 19.7714 11.863 19.7714 9.29504C19.7714 6.72712 21.8724 4.62609 24.4403 4.62609ZM25.7373 6.96057C25.4621 6.96057 25.1982 7.06988 25.0036 7.26446C24.809 7.45903 24.6997 7.72294 24.6997 7.99811C24.6997 8.27329 24.809 8.53719 25.0036 8.73177C25.1982 8.92634 25.4621 9.03566 25.7373 9.03566C26.0124 9.03566 26.2763 8.92634 26.4709 8.73177C26.6655 8.53719 26.7748 8.27329 26.7748 7.99811C26.7748 7.72294 26.6655 7.45903 26.4709 7.26446C26.2763 7.06988 26.0124 6.96057 25.7373 6.96057ZM23.1434 9.55443C22.8682 9.55443 22.6043 9.66374 22.4097 9.85832C22.2152 10.0529 22.1058 10.3168 22.1058 10.592C22.1058 10.8672 22.2152 11.1311 22.4097 11.3256C22.6043 11.5202 22.8682 11.6295 23.1434 11.6295C23.4186 11.6295 23.6825 11.5202 23.877 11.3256C24.0716 11.1311 24.1809 10.8672 24.1809 10.592C24.1809 10.3168 24.0716 10.0529 23.877 9.85832C23.6825 9.66374 23.4186 9.55443 23.1434 9.55443ZM8.87714 28.749C8.43618 28.749 8.09898 29.0862 8.09898 29.5272C8.09898 29.9681 8.43618 30.3053 8.87714 30.3053H14.0649C14.5058 30.3053 14.843 29.9681 14.843 29.5272C14.843 29.0862 14.5058 28.749 14.0649 28.749H8.87714Z" fill="#FCB813"/>
</g>
<defs>
<clipPath id="clip0_403:74">
<rect width="33" height="33" fill="white" transform="translate(0 0.417969)"/>
</clipPath>
</defs>
</svg>
