<svg xmlns="http://www.w3.org/2000/svg" viewBox="0 0 24 24" fill="#ffffff">
   <path stroke="null" d="m11.904603,2.145017c3.17869,0 3.555166,0.012101 4.810462,0.069368c1.160691,0.05297 1.791025,0.246912 2.210565,0.409892c0.555625,0.21596 0.952246,0.47397 1.368804,0.890528c0.416558,0.416558 0.674568,0.813169 0.890487,1.368804c0.163031,0.41954 0.356973,1.049874 0.409944,2.210513c0.057277,1.255337 0.069368,1.631824 0.069368,4.810514c0,3.17869 -0.012101,3.555176 -0.069368,4.810462c-0.05297,1.160691 -0.246912,1.791035 -0.409944,2.210565c-0.215908,0.555635 -0.473928,0.952246 -0.890487,1.368804c-0.416558,0.416558 -0.813169,0.674568 -1.368804,0.890487c-0.41954,0.163031 -1.049874,0.356973 -2.210565,0.409944c-1.25511,0.057277 -1.631586,0.069368 -4.810462,0.069368c-3.178876,0 -3.555363,-0.012101 -4.810462,-0.069368c-1.160691,-0.05297 -1.791035,-0.246912 -2.210513,-0.409944c-0.555677,-0.215908 -0.952287,-0.473928 -1.368845,-0.890487c-0.416558,-0.416558 -0.674568,-0.813169 -0.890487,-1.368804c-0.163031,-0.419529 -0.356973,-1.049874 -0.409944,-2.210513c-0.057277,-1.255337 -0.069368,-1.631824 -0.069368,-4.810514c0,-3.17869 0.012101,-3.555166 0.069368,-4.810462c0.05297,-1.160691 0.246912,-1.791025 0.409944,-2.210565c0.215908,-0.555625 0.473928,-0.952246 0.890487,-1.368804c0.416558,-0.416558 0.813169,-0.674568 1.368845,-0.890528c0.419488,-0.162979 1.049833,-0.356921 2.210471,-0.409892c1.255337,-0.057277 1.631824,-0.069368 4.810514,-0.069368m0,-2.145017c-3.23313,0 -3.638488,0.013706 -4.908235,0.071635c-1.267159,0.057846 -2.132501,0.259055 -2.88977,0.553358c-0.782838,0.30423 -1.446722,0.711286 -2.108537,1.3731c-0.661814,0.661814 -1.06887,1.325709 -1.3731,2.108537c-0.294303,0.757269 -0.495522,1.622611 -0.553358,2.88977c-0.057939,1.269706 -0.071593,1.675115 -0.071593,4.908235c0,3.23313 0.013654,3.638529 0.071593,4.908235c0.057836,1.267159 0.259055,2.132501 0.553358,2.88977c0.30423,0.782786 0.711286,1.446722 1.3731,2.108537c0.661814,0.661814 1.325709,1.06887 2.108537,1.3731c0.757269,0.294303 1.622611,0.495522 2.88977,0.553358c1.269758,0.057939 1.675115,0.071593 4.908235,0.071593c3.23312,0 3.638529,-0.013654 4.908235,-0.071593c1.267159,-0.057836 2.132501,-0.259055 2.88977,-0.553358c0.782838,-0.30423 1.446722,-0.711286 2.108537,-1.3731c0.661814,-0.661814 1.06887,-1.325709 1.3731,-2.108537c0.294303,-0.757269 0.495522,-1.622611 0.553358,-2.88977c0.057939,-1.269706 0.071635,-1.675115 0.071635,-4.908235c0,-3.23312 -0.013706,-3.638529 -0.071635,-4.908235c-0.057846,-1.267159 -0.259055,-2.132501 -0.553358,-2.88977c-0.30423,-0.782838 -0.711286,-1.446722 -1.3731,-2.108537c-0.661814,-0.661814 -1.325709,-1.06887 -2.108537,-1.3731c-0.757269,-0.294303 -1.622611,-0.495522 -2.88977,-0.553358c-1.269706,-0.057939 -1.675115,-0.071635 -4.908235,-0.071635zm0,5.791445c-3.376214,0 -6.113211,2.736987 -6.113211,6.113201c0,3.376214 2.736987,6.113211 6.113211,6.113211c3.376214,0 6.113201,-2.736987 6.113201,-6.113211c0,-3.376214 -2.736987,-6.113201 -6.113201,-6.113201zm0,10.081436c-2.191569,0 -3.968236,-1.776667 -3.968236,-3.968236c0,-2.191569 1.776667,-3.968236 3.968236,-3.968236c2.191569,0 3.968236,1.776667 3.968236,3.968236c0,2.191569 -1.776667,3.968236 -3.968236,3.968236zm7.783264,-10.322955c0,0.788976 -0.639558,1.428576 -1.428534,1.428576c-0.788976,0 -1.428576,-0.639599 -1.428576,-1.428576c0,-0.788976 0.639599,-1.428534 1.428576,-1.428534c0.788976,0 1.428534,0.639558 1.428534,1.428534z"/>
</svg>