<svg xmlns="http://www.w3.org/2000/svg" viewBox="0 0 184.853 203.766" fill="#0053a0"><path d="M0 63.919c.321-1.716.543-3.458.98-5.144a29.797 29.797 0 0 1 54.565-7.823q12.55 21.744 24.99 43.55c.157.274.286.563.55 1.088H79.59l-50.508-.04A29.457 29.457 0 0 1 .508 71.044C.348 70.028.17 69.014 0 68v-4.08zM92.42 88.985c-1.712-2.942-3.319-5.692-4.916-8.447-7.01-12.093-14.27-24.049-20.965-36.313C56.493 25.826 67.109 4.67 86.297.66a29.694 29.694 0 0 1 35.19 22.097 28.068 28.068 0 0 1-2.933 21.408c-8.395 14.567-16.916 29.06-25.386 43.583-.2.343-.41.68-.748 1.238zM103.55 95.604c.313-.574.527-.989.76-1.392 8.247-14.247 16.443-28.523 24.76-42.728 6.065-10.359 15.2-15.44 27.215-15.136 12.987.329 24.572 10.049 27.49 22.94a29.762 29.762 0 0 1-24.565 36.187 28.462 28.462 0 0 1-4.42.304q-16.2.028-32.399-.008c-5.838-.01-11.677-.056-17.516-.09-.38-.003-.762-.043-1.325-.077zM103.871 108.235h1.67c5.44 0 10.88.01 16.319-.002 11.078-.024 22.156-.148 33.233-.06a28.518 28.518 0 0 1 20.847 8.543c8.046 8.194 10.757 18.076 7.675 29.11-3.098 11.091-10.606 18.144-21.78 20.952a29.23 29.23 0 0 1-31.457-12.222c-2.817-4.304-5.185-8.902-7.745-13.373q-9.052-15.81-18.091-31.63c-.193-.338-.355-.694-.671-1.318zM92.35 114.835c1.994 3.463 3.884 6.741 5.77 10.022q9.794 17.036 19.59 34.07a30.772 30.772 0 0 1 4.145 17.567c-.741 12.584-10.548 23.926-22.986 26.57a29.709 29.709 0 0 1-35.821-23.457 28.095 28.095 0 0 1 3.36-20.106q12.473-21.577 25.029-43.107l.913-1.56zM81.313 108.235c-.31.59-.494.973-.706 1.339-8.395 14.48-16.683 29.022-25.23 43.41-5.045 8.493-12.683 13.31-22.576 14.357a29.665 29.665 0 0 1-7.312-58.854c4.399-.618 8.934-.264 13.407-.353.36-.008.72.009 1.08.01l39.826.091h1.511z"/></svg>