<svg xmlns="http://www.w3.org/2000/svg" viewBox="0 0 30.521 38.756"><path fill="#fcb813" d="M28.082 2.431h-2.308V.813a.813.813 0 1 0-1.625 0v1.618h-2.256V.813a.813.813 0 1 0-1.625 0v1.618h-2.255V.813a.813.813 0 1 0-1.625 0v1.618h-2.255V.813a.813.813 0 1 0-1.625 0v1.618h-2.255V.813a.813.813 0 1 0-1.625 0v1.618H6.373V.813a.813.813 0 1 0-1.625 0v1.618h-2.31A2.438 2.438 0 0 0 0 4.87v31.45a2.438 2.438 0 0 0 2.438 2.437h25.644a2.438 2.438 0 0 0 2.439-2.437V4.869a2.438 2.438 0 0 0-2.439-2.438zM2.438 36.318V10.845H19.89a.813.813 0 0 0 0-1.626H2.438V4.87h2.31v1.68a.813.813 0 0 0 1.625 0v-1.68h2.255v1.68a.813.813 0 0 0 1.625 0v-1.68h2.255v1.68a.813.813 0 0 0 1.625 0v-1.68h2.255v1.68a.813.813 0 0 0 1.625 0v-1.68h2.255v1.68a.813.813 0 0 0 1.625 0v-1.68h2.256v1.68a.813.813 0 0 0 1.625 0v-1.68h2.308v4.35H24.44a.813.813 0 1 0 0 1.626h3.643v25.473H2.438z"/><path fill="#fca029" d="M12.665 31.805a1.418 1.418 0 0 1-1.087-.507l-4.337-5.18a1.418 1.418 0 0 1 2.174-1.82l3.131 3.74 8.16-12.032a1.417 1.417 0 0 1 2.345 1.592l-9.213 13.586a1.418 1.418 0 0 1-1.101.62h-.072z"/></svg>