<svg xmlns="http://www.w3.org/2000/svg" viewBox="0 0 32.699 32.42"><path fill="#fcb813" d="M16.35 15.107a7.554 7.554 0 1 1 7.552-7.553 7.562 7.562 0 0 1-7.552 7.553zm0-12.98a5.427 5.427 0 1 0 5.426 5.427 5.433 5.433 0 0 0-5.426-5.427zM31.636 32.42H1.062A1.063 1.063 0 0 1 0 31.356v-3.26a12.277 12.277 0 0 1 11.943-12.319h.034a1.065 1.065 0 0 1 .906.505l3.466 5.629 3.466-5.629a1.056 1.056 0 0 1 .94-.505 12.277 12.277 0 0 1 11.944 12.32v3.26a1.064 1.064 0 0 1-1.063 1.063zm-29.51-2.127h28.446v-2.196a10.156 10.156 0 0 0-9.28-10.159l-4.037 6.558a1.105 1.105 0 0 1-1.81 0l-4.038-6.558a10.156 10.156 0 0 0-9.28 10.159v2.196z"/><path fill="#fcb813" d="M11.74 28.485a.684.684 0 0 1-.14-.014.705.705 0 0 1-.484-.36l-4.608-8.586a.708.708 0 0 1 1.248-.67l4.204 7.833 3.944-3.185a.71.71 0 0 1 .891 1.104l-4.61 3.721a.71.71 0 0 1-.445.157z"/><path fill="#fcb813" d="M20.958 28.485a.71.71 0 0 1-.445-.157l-4.609-3.721a.71.71 0 1 1 .891-1.104l3.943 3.185 4.205-7.833a.708.708 0 1 1 1.248.67l-4.609 8.586a.705.705 0 0 1-.483.36.686.686 0 0 1-.14.014z"/></svg>